<?xml version="1.0" standalone="no"?>
<!DOCTYPE svg PUBLIC "-//W3C//DTD SVG 20010904//EN"
 "http://www.w3.org/TR/2001/REC-SVG-20010904/DTD/svg10.dtd">
<svg version="1.0" xmlns="http://www.w3.org/2000/svg"
 width="16.000000pt" height="16.000000pt" viewBox="0 0 16.000000 16.000000"
 preserveAspectRatio="xMidYMid meet">
<metadata>
Created by potrace 1.11, written by Peter Selinger 2001-2013
</metadata>
<g transform="translate(0.000000,16.000000) scale(0.004233,-0.004233)"
fill="#000000" stroke="none">
<path d="M1578 3418 c-90 -143 -1510 -2560 -1514 -2576 -2 -10 56 -136 129
-282 l132 -265 1565 -3 1566 -2 132 267 c73 148 133 273 132 280 0 7 -10 28
-22 46 -13 19 -363 613 -778 1321 l-755 1285 -271 1 -271 0 -45 -72z m390 -30
l-1 -63 -6 60 c-4 36 -9 55 -14 48 -5 -7 -16 -13 -25 -13 -13 0 -13 2 4 15 36
28 44 19 42 -47z m265 -990 l595 -1008 -232 0 -232 0 -240 395 c-131 217 -297
490 -368 606 l-128 210 -17 -28 c-10 -15 -298 -517 -640 -1115 -343 -599 -626
-1088 -630 -1088 -3 0 -58 103 -121 229 -112 225 -114 231 -100 260 43 86
1506 2558 1511 2553 4 -4 275 -460 602 -1014z m-183 988 c0 -2 -7 -7 -16 -10
-8 -3 -12 -2 -9 4 6 10 25 14 25 6z m-232 -128 l-1 -63 -6 50 c-4 31 -9 45
-14 38 -5 -7 -13 -13 -19 -13 -6 0 -1 11 12 25 13 14 25 25 27 25 2 0 2 -28 1
-62z m307 -12 c0 -41 -3 -72 -7 -69 -5 2 -8 30 -8 61 0 43 -3 53 -12 44 -24
-24 -31 -12 -8 13 13 14 26 25 29 25 3 0 6 -33 6 -74z m-154 -178 c-5 -60 -17
-44 -13 19 2 46 0 55 -10 45 -6 -6 -18 -12 -26 -12 -7 0 0 11 15 24 l28 25 5
-32 c3 -18 3 -49 1 -69z m299 30 c0 -39 -3 -68 -6 -65 -4 3 -7 29 -7 57 0 42
-2 48 -14 39 -11 -9 -17 -9 -26 1 -7 7 -7 10 -1 7 6 -3 18 3 27 14 9 10 19 19
22 19 3 0 5 -32 5 -72z m-148 -147 c1 -33 -1 -64 -5 -68 -4 -3 -7 20 -7 52 0
46 -3 56 -12 47 -24 -24 -31 -12 -8 13 13 14 25 23 27 21 2 -2 4 -31 5 -65z
m275 30 c-1 -11 -6 -17 -14 -14 -10 4 -11 9 -2 19 15 19 18 18 16 -5z m26 -50
c2 -23 0 -44 -5 -47 -4 -3 -8 18 -8 47 0 61 8 61 13 0z m-152 -152 c-1 -28 -6
-48 -9 -44 -3 3 -5 29 -3 57 2 47 1 51 -14 38 -13 -11 -18 -11 -28 0 -7 8 -8
10 -1 7 6 -4 20 3 30 14 l19 21 5 -21 c3 -12 3 -44 1 -72z m159 -154 c4 3 3
-6 -3 -20 -11 -22 -12 -20 -15 30 -3 51 -4 54 -22 43 -15 -10 -22 -10 -32 0
-11 11 -10 12 4 7 10 -4 22 2 35 18 l18 25 3 -54 c2 -30 7 -52 12 -49z m-313
73 c-3 -8 -6 -5 -6 6 -1 11 2 17 5 13 3 -3 4 -12 1 -19z m210 -33 c0 -8 -4
-12 -9 -9 -5 3 -6 10 -3 15 9 13 12 11 12 -6z m-59 -162 l-1 -68 -6 55 c-4 33
-9 50 -14 43 -5 -7 -13 -13 -19 -13 -6 0 -1 11 12 25 13 14 25 25 27 25 2 0 2
-30 1 -67z m300 -10 c-2 -77 -2 -77 -5 -16 l-4 63 -27 -17 -27 -17 29 32 c17
18 31 32 33 32 2 0 2 -35 1 -77z m-859 -113 c59 -99 70 -123 61 -139 -16 -32
-12 -88 9 -108 18 -17 15 -25 -109 -248 -126 -227 -128 -230 -158 -227 -41 4
-56 -25 -49 -89 5 -40 1 -56 -29 -113 -20 -36 -36 -66 -37 -66 -2 0 -1 18 1
39 5 50 -12 81 -43 81 -29 0 -45 -26 -45 -74 0 -43 24 -70 57 -61 23 5 23 3
-17 -67 -22 -40 -62 -112 -88 -161 -31 -58 -53 -87 -64 -87 -21 0 -38 -29 -38
-68 0 -16 -13 -52 -28 -81 -28 -51 -29 -51 -40 -26 -14 31 -56 34 -72 6 -15
-29 -12 -87 6 -105 21 -21 41 -20 61 4 15 18 30 20 118 20 88 0 103 -2 118
-20 9 -11 24 -20 32 -20 8 0 23 9 32 20 15 18 30 20 118 20 88 0 103 -2 118
-20 21 -25 43 -25 64 0 15 18 30 20 118 20 88 0 103 -2 118 -20 9 -11 24 -20
32 -20 8 0 23 9 32 20 15 18 30 20 118 20 88 0 103 -2 118 -20 21 -25 43 -25
64 0 15 18 30 20 118 20 88 0 103 -2 118 -20 9 -11 24 -20 32 -20 8 0 23 9 32
20 15 18 30 20 118 20 88 0 103 -2 118 -20 21 -25 43 -25 64 0 15 18 30 20
118 20 88 0 103 -2 118 -20 21 -25 43 -25 64 0 15 18 30 20 118 20 88 0 103
-2 118 -20 21 -25 43 -25 64 0 15 17 30 20 95 20 43 0 78 -2 78 -5 0 -2 -5
-15 -11 -28 -8 -18 -17 -22 -39 -19 -38 5 -54 -25 -46 -87 5 -42 -1 -59 -62
-188 l-67 -142 -45 -1 -46 0 4 39 c5 50 -12 81 -43 81 -31 0 -48 -31 -43 -81
l4 -39 -111 0 -111 0 4 39 c5 50 -12 81 -43 81 -31 0 -48 -31 -43 -81 l4 -39
-111 0 -111 0 4 39 c5 50 -12 81 -43 81 -31 0 -48 -31 -43 -81 l4 -39 -111 0
-111 0 4 39 c5 50 -12 81 -43 81 -31 0 -48 -31 -43 -81 l4 -39 -111 0 -111 0
4 39 c5 50 -12 81 -43 81 -31 0 -48 -31 -43 -81 l4 -39 -111 0 -111 0 4 39 c5
50 -12 81 -43 81 -31 0 -48 -31 -43 -81 l4 -39 -111 0 -111 0 4 39 c5 50 -12
81 -43 81 -31 0 -48 -31 -43 -81 l4 -39 -111 0 -111 0 4 39 c5 50 -12 81 -43
81 -31 0 -48 -31 -43 -81 l4 -39 -111 0 -111 0 4 39 c5 50 -12 81 -43 81 -31
0 -48 -31 -43 -81 l4 -39 -111 0 -111 0 4 39 c5 50 -12 81 -43 81 -31 0 -48
-31 -43 -81 l4 -39 -88 0 c-49 0 -88 2 -88 5 0 15 63 114 85 133 14 12 25 31
25 43 0 12 14 46 31 75 27 48 32 52 45 39 49 -48 97 35 63 108 -10 22 3 48
116 246 98 171 133 225 153 232 34 13 42 26 42 70 0 21 12 57 26 84 24 42 28
45 37 29 12 -22 27 -34 44 -34 43 0 59 94 23 130 l-20 20 131 230 c119 208
134 229 154 224 38 -9 58 21 52 79 -4 44 0 57 29 106 33 55 34 55 34 24 0 -33
22 -63 45 -63 24 0 45 31 45 66 0 46 -16 74 -41 74 -11 0 -19 4 -17 9 10 30
134 238 139 235 3 -2 38 -57 78 -124z m709 -33 l-1 -72 -6 60 c-4 36 -9 55
-14 48 -5 -7 -13 -13 -19 -13 -6 0 -2 10 10 23 12 13 19 27 15 32 -5 4 -2 5 5
1 8 -5 11 -31 10 -79z m304 5 c1 -34 -1 -64 -5 -68 -4 -4 -7 18 -7 50 0 36 -4
55 -10 51 -6 -4 -8 -11 -5 -16 3 -5 -1 -6 -10 -3 -14 6 -13 10 6 30 12 13 24
22 26 21 2 -2 4 -31 5 -65z m-152 -154 c0 -39 -3 -68 -7 -64 -4 4 -6 30 -5 58
1 38 -2 48 -11 39 -23 -23 -30 -10 -7 14 13 14 25 25 27 25 2 0 3 -32 3 -72z
m-1051 38 c7 -8 11 -32 9 -53 -2 -30 -7 -38 -23 -38 -16 0 -21 8 -23 39 -5 61
11 83 37 52z m1326 -5 c-3 -6 -11 -11 -17 -11 -6 0 -6 6 2 15 14 17 26 13 15
-4z m-1032 -21 c14 -23 16 -34 7 -50 -18 -33 -35 -18 -38 33 -4 54 6 60 31 17z
m1054 -62 c-2 -13 -4 -3 -4 22 0 25 2 35 4 23 2 -13 2 -33 0 -45z m-780 -386
l223 -367 -215 -3 c-118 -1 -312 -1 -430 0 l-215 3 202 368 c111 202 204 367
207 367 3 -1 106 -166 228 -368z m633 238 c-3 -16 -7 -3 -10 35 -3 36 -8 55
-13 48 -5 -7 -13 -13 -19 -13 -6 0 -1 12 13 26 l24 26 5 -49 c3 -26 3 -59 0
-73z m-156 102 c3 -5 -1 -9 -9 -9 -8 0 -12 4 -9 9 3 4 7 8 9 8 2 0 6 -4 9 -8z
m-1184 -67 c0 -34 -21 -57 -37 -41 -6 6 25 76 34 76 1 0 3 -16 3 -35z m1190
-87 c0 -16 -3 -19 -11 -11 -6 6 -8 16 -5 22 11 17 16 13 16 -11z m300 -48 c0
-38 -4 -70 -8 -70 -4 0 -7 25 -5 55 l2 55 -27 -18 c-23 -14 -25 -14 -15 -1 7
9 9 20 5 24 -4 5 -2 5 4 2 7 -4 17 0 24 8 7 8 14 15 16 15 2 0 4 -31 4 -70z
m-150 -179 l-5 -46 -5 60 c-3 36 -8 55 -13 48 -5 -7 -13 -13 -19 -13 -6 0 -1
12 13 26 l24 26 5 -28 c3 -15 3 -48 0 -73z m301 82 c2 -10 1 -43 -2 -73 l-6
-55 -1 60 c-2 46 -5 56 -14 47 -22 -22 -29 -13 -11 13 21 29 29 31 34 8z
m-151 -211 c0 -42 -3 -72 -7 -68 -4 3 -6 32 -5 64 1 50 -1 55 -13 39 -9 -13
-15 -15 -20 -6 -5 7 -1 16 9 21 9 5 14 13 12 17 -3 4 1 8 9 8 12 0 15 -16 15
-75z m299 6 c-1 -48 -3 -64 -8 -48 -4 14 -6 41 -4 60 3 28 2 33 -8 23 -24 -24
-32 -13 -9 12 13 14 25 25 27 25 2 0 3 -33 2 -72z m-1651 39 c8 -9 4 -23 -14
-52 l-24 -40 0 46 c0 58 14 75 38 46z m1504 -189 c-4 -91 -12 -103 -12 -18 0
50 -3 61 -12 52 -24 -24 -31 -12 -8 13 13 14 26 25 29 25 3 0 5 -32 3 -72z
m-1944 -7 c-3 -38 -6 -46 -23 -46 -16 0 -21 8 -23 38 -4 42 12 69 34 60 11 -4
14 -18 12 -52z m291 45 c7 -8 11 -32 9 -53 -2 -30 -7 -38 -23 -38 -16 0 -21 8
-23 39 -5 61 11 83 37 52z m1921 -6 c0 -5 -5 -10 -11 -10 -5 0 -7 5 -4 10 3 6
8 10 11 10 2 0 4 -4 4 -10z m30 -64 c0 -23 -6 -36 -17 -41 -15 -5 -16 -4 -5 6
6 7 12 26 12 41 0 15 2 28 5 28 3 0 5 -15 5 -34z m-148 -88 c-1 -81 -3 -99
-10 -94 -5 3 -7 19 -4 37 4 25 2 30 -9 24 -11 -6 -12 -5 -1 6 16 18 17 48 0
31 -24 -24 -31 -12 -8 13 28 29 33 27 32 -17z m-1527 2 c-3 -5 -14 -10 -23
-10 -15 0 -15 2 -2 10 20 13 33 13 25 0z m24 -55 c-1 -35 -5 -63 -8 -61 -3 2
-5 19 -4 38 1 18 2 45 2 61 1 15 3 27 7 27 3 0 4 -29 3 -65z m303 40 c2 -11 0
-38 -3 -60 l-6 -40 -2 51 c-1 60 -6 67 -35 52 -19 -10 -20 -9 -8 5 18 22 50
17 54 -8z m273 15 c-3 -5 -14 -10 -23 -10 -15 0 -15 2 -2 10 20 13 33 13 25 0z
m18 -101 c-4 -4 -7 11 -6 34 3 74 7 83 10 28 2 -30 1 -57 -4 -62z m281 96 c-4
-8 -10 -12 -15 -9 -11 6 -2 24 11 24 5 0 7 -7 4 -15z m23 -67 c-2 -18 -4 -6
-4 27 0 33 2 48 4 33 2 -15 2 -42 0 -60z m278 72 c-3 -5 -11 -10 -16 -10 -6 0
-7 5 -4 10 3 6 11 10 16 10 6 0 7 -4 4 -10z m25 -50 c0 -33 -3 -60 -7 -60 -5
0 -7 15 -6 32 1 18 2 45 2 61 2 54 11 26 11 -33z m-1943 -25 c-4 -8 -11 -15
-17 -15 -7 0 -7 6 0 21 13 23 26 19 17 -6z m898 -100 c0 -41 -3 -75 -7 -75 -5
0 -8 26 -8 57 0 44 -3 54 -12 45 -27 -27 -30 -10 -3 18 16 17 29 30 29 30 1 0
1 -34 1 -75z m297 13 c0 -82 -1 -92 -9 -84 -4 3 -6 30 -4 59 2 42 0 50 -10 40
-25 -25 -30 -13 -7 16 13 15 24 27 26 26 2 -2 4 -27 4 -57z m310 50 c-7 -7
-13 -41 -14 -77 l-1 -66 -6 60 c-4 36 -9 55 -14 48 -5 -7 -15 -13 -24 -13 -9
0 -1 12 22 30 38 30 60 41 37 18z m-910 -69 c0 -33 -3 -63 -6 -67 -3 -3 -6 21
-6 53 0 51 -2 56 -15 45 -13 -10 -18 -11 -28 -1 -9 10 -9 12 3 9 8 -2 14 3 12
10 -1 8 2 11 7 8 5 -4 13 -1 16 5 13 19 18 0 17 -62z m1200 0 c-1 -79 -12 -91
-12 -14 0 50 -2 56 -15 45 -25 -21 -28 -4 -4 19 12 11 25 19 28 16 2 -3 4 -33
3 -66z m300 -4 c0 -36 -3 -69 -6 -72 -3 -4 -6 22 -6 57 0 50 -3 61 -12 52 -24
-24 -31 -12 -8 13 13 14 25 23 28 21 2 -3 4 -35 4 -71z m302 -4 c0 -42 -3 -66
-8 -61 -5 5 -8 33 -7 61 1 46 0 50 -14 39 -9 -8 -19 -9 -23 -4 -4 5 -6 8 -4 7
2 -1 13 7 25 17 11 11 23 18 25 15 2 -2 5 -36 6 -74z m-1353 -147 c-3 -47 -6
-61 -11 -44 -3 14 -5 41 -3 60 3 28 2 33 -8 23 -24 -24 -33 -13 -10 11 13 14
20 30 16 38 -3 7 -1 6 7 -3 9 -11 12 -37 9 -85z m297 9 c-2 -70 -2 -72 -5 -20
-3 34 -8 55 -14 52 -5 -4 -7 -11 -4 -16 3 -5 -1 -6 -9 -3 -14 5 -12 10 7 34
12 16 23 29 25 29 1 1 1 -34 0 -76z m-900 -5 c-2 -72 -2 -72 -5 -14 -4 56 -5
58 -23 41 -18 -16 -19 -16 -17 3 0 11 4 19 8 16 4 -2 12 3 19 11 7 8 14 15 16
15 2 0 3 -33 2 -72z m302 0 l-5 -73 -3 57 -3 58 -27 -17 -27 -17 29 32 c17 18
32 32 35 32 3 0 4 -33 1 -72z m900 0 c0 -39 -3 -68 -7 -65 -3 4 -5 30 -4 58 1
33 -2 48 -9 44 -6 -3 -8 -11 -5 -16 3 -5 -1 -6 -10 -3 -14 6 -13 10 6 30 12
13 24 24 26 24 2 0 3 -32 3 -72z m300 0 c0 -39 -3 -68 -7 -65 -3 4 -5 30 -4
57 l1 51 -24 -16 c-18 -12 -26 -13 -32 -4 -4 7 -3 9 3 6 6 -4 21 5 33 18 13
14 25 25 27 25 2 0 3 -32 3 -72z m301 -40 c-6 -49 -16 -30 -14 27 l2 55 -27
-17 -27 -17 30 33 30 33 5 -44 c3 -24 3 -55 1 -70z m312 105 c-9 -3 -13 -27
-13 -69 0 -35 -3 -64 -7 -64 -5 0 -6 25 -5 56 3 40 1 54 -7 50 -6 -4 -9 -12
-6 -17 3 -5 -1 -6 -9 -3 -9 3 -16 8 -16 10 0 10 46 44 59 43 11 0 12 -2 4 -6z
m-2285 -33 c-14 -22 -24 -19 -15 5 4 8 11 15 17 15 6 0 6 -7 -2 -20z m1221
-144 c-1 -18 -3 -23 -6 -13 -4 14 -8 16 -19 6 -8 -6 -17 -9 -21 -5 -4 3 3 14
16 22 19 13 20 18 9 32 -12 15 -11 16 5 3 10 -8 17 -26 16 -45z m-1198 -15
l-5 -26 -6 25 c-4 17 -8 21 -14 12 -4 -6 -12 -12 -17 -12 -6 0 0 13 13 28 18
23 24 26 29 14 3 -9 3 -27 0 -41z m300 17 c-4 -36 -5 -39 -11 -18 -4 17 -8 21
-14 12 -4 -6 -14 -12 -22 -12 -8 0 -1 12 18 30 18 16 33 30 33 30 0 0 -1 -19
-4 -42z m298 -7 c-1 -31 -2 -33 -8 -11 -5 17 -9 21 -15 12 -4 -6 -12 -12 -18
-12 -6 0 -3 9 6 19 10 11 15 24 11 30 -3 7 0 8 9 5 11 -4 16 -18 15 -43z m303
2 c-4 -24 -6 -25 -12 -8 -4 13 -9 15 -14 7 -4 -7 -12 -12 -18 -12 -6 0 -2 10
10 23 12 13 19 28 15 32 -5 5 -1 4 8 -3 11 -8 14 -21 11 -39z m602 11 c-3 -31
-14 -45 -14 -19 0 17 -1 17 -20 0 -27 -24 -26 -7 2 22 28 30 36 29 32 -3z
m298 -11 c-4 -20 -7 -23 -10 -10 -3 15 -7 16 -18 6 -8 -6 -17 -9 -21 -6 -7 8
39 47 48 41 4 -2 4 -16 1 -31z m297 5 c0 -26 -2 -29 -8 -14 -5 14 -10 16 -15
8 -4 -7 -12 -12 -18 -12 -6 0 -1 11 12 25 13 14 25 25 27 25 2 0 3 -15 2 -32z
m48 17 c0 -8 -4 -12 -9 -9 -5 3 -6 10 -3 15 9 13 12 11 12 -6z m252 -17 c-1
-18 -3 -25 -6 -15 -4 14 -8 16 -19 6 -24 -19 -28 -3 -5 20 28 28 31 27 30 -11z
m-2551 3 c9 -5 12 -24 10 -52 -2 -36 -7 -44 -23 -44 -16 0 -21 8 -23 39 -5 59
6 77 36 57z m992 -5 c0 -2 -8 -10 -17 -17 -16 -13 -17 -12 -4 4 13 16 21 21
21 13z m-685 -86 c-3 -5 -12 -10 -20 -10 -8 0 -17 5 -20 10 -4 6 5 10 20 10
15 0 24 -4 20 -10z m300 0 c-3 -5 -12 -10 -20 -10 -8 0 -17 5 -20 10 -4 6 5
10 20 10 15 0 24 -4 20 -10z m300 0 c-3 -5 -12 -10 -20 -10 -8 0 -17 5 -20 10
-4 6 5 10 20 10 15 0 24 -4 20 -10z m300 0 c-3 -5 -12 -10 -20 -10 -8 0 -17 5
-20 10 -4 6 5 10 20 10 15 0 24 -4 20 -10z m300 0 c-3 -5 -12 -10 -20 -10 -8
0 -17 5 -20 10 -4 6 5 10 20 10 15 0 24 -4 20 -10z m300 0 c-3 -5 -12 -10 -20
-10 -8 0 -17 5 -20 10 -4 6 5 10 20 10 15 0 24 -4 20 -10z m300 0 c-3 -5 -12
-10 -20 -10 -8 0 -17 5 -20 10 -4 6 5 10 20 10 15 0 24 -4 20 -10z m300 0 c-3
-5 -12 -10 -20 -10 -8 0 -17 5 -20 10 -4 6 5 10 20 10 15 0 24 -4 20 -10z
m141 -64 c3 -8 -4 -31 -15 -53 l-20 -38 -1 46 c0 25 3 49 7 52 11 11 23 8 29
-7z m-2988 -52 c-2 -27 -8 -40 -21 -42 -26 -5 -32 25 -13 65 21 44 39 32 34
-23z m-9 -248 c7 -8 11 -32 9 -53 -2 -30 -7 -38 -23 -38 -16 0 -21 8 -23 39
-5 61 11 83 37 52z m300 0 c7 -8 11 -32 9 -53 -2 -30 -7 -38 -23 -38 -16 0
-21 8 -23 39 -5 61 11 83 37 52z m300 0 c7 -8 11 -32 9 -53 -2 -30 -7 -38 -23
-38 -16 0 -21 8 -23 39 -5 61 11 83 37 52z m300 0 c7 -8 11 -32 9 -53 -2 -30
-7 -38 -23 -38 -16 0 -21 8 -23 39 -5 61 11 83 37 52z m300 0 c7 -8 11 -32 9
-53 -2 -30 -7 -38 -23 -38 -16 0 -21 8 -23 39 -5 61 11 83 37 52z m300 0 c7
-8 11 -32 9 -53 -2 -30 -7 -38 -23 -38 -16 0 -21 8 -23 39 -5 61 11 83 37 52z
m300 0 c7 -8 11 -32 9 -53 -2 -30 -7 -38 -23 -38 -16 0 -21 8 -23 39 -5 61 11
83 37 52z m300 0 c7 -8 11 -32 9 -53 -2 -30 -7 -38 -23 -38 -16 0 -21 8 -23
39 -5 61 11 83 37 52z m300 0 c7 -8 11 -32 9 -53 -2 -30 -7 -38 -23 -38 -16 0
-21 8 -23 39 -5 61 11 83 37 52z m300 0 c7 -8 11 -32 9 -53 -2 -30 -7 -38 -23
-38 -16 0 -21 8 -23 39 -5 61 11 83 37 52z"/>
<path d="M1620 2391 c-25 -47 -3 -121 35 -121 24 0 45 31 45 66 0 48 -16 74
-45 74 -14 0 -29 -8 -35 -19z m48 0 c9 -5 12 -24 10 -52 -2 -36 -7 -44 -23
-44 -16 0 -21 8 -23 39 -5 59 6 77 36 57z"/>
<path d="M1620 2091 c-25 -47 -3 -121 35 -121 24 0 45 31 45 66 0 48 -16 74
-45 74 -14 0 -29 -8 -35 -19z m49 -5 c7 -8 11 -32 9 -53 -2 -30 -7 -38 -23
-38 -16 0 -21 8 -23 39 -5 61 11 83 37 52z"/>
<path d="M1470 1941 c-25 -47 -3 -121 35 -121 24 0 45 31 45 66 0 48 -16 74
-45 74 -14 0 -29 -8 -35 -19z m49 -5 c7 -8 11 -32 9 -53 -2 -30 -7 -38 -23
-38 -16 0 -21 8 -23 39 -5 61 11 83 37 52z"/>
<path d="M1320 1791 c-25 -47 -3 -121 35 -121 24 0 45 31 45 66 0 48 -16 74
-45 74 -14 0 -29 -8 -35 -19z m49 -5 c7 -8 11 -32 9 -53 -2 -30 -7 -38 -23
-38 -16 0 -21 8 -23 39 -5 61 11 83 37 52z"/>
<path d="M1170 1641 c-25 -47 -3 -121 35 -121 24 0 45 31 45 66 0 48 -16 74
-45 74 -14 0 -29 -8 -35 -19z m49 -5 c7 -8 11 -32 9 -53 -2 -30 -7 -38 -23
-38 -16 0 -21 8 -23 39 -5 61 11 83 37 52z"/>
<path d="M1170 1341 c-25 -47 -3 -121 35 -121 24 0 45 31 45 66 0 48 -16 74
-45 74 -14 0 -29 -8 -35 -19z m49 -5 c7 -8 11 -32 9 -53 -2 -30 -7 -38 -23
-38 -16 0 -21 8 -23 39 -5 61 11 83 37 52z"/>
<path d="M1020 1191 c-25 -47 -3 -121 35 -121 24 0 45 31 45 66 0 48 -16 74
-45 74 -14 0 -29 -8 -35 -19z m49 -5 c7 -8 11 -32 9 -53 -2 -30 -7 -38 -23
-38 -16 0 -21 8 -23 39 -5 61 11 83 37 52z"/>
<path d="M870 1041 c-25 -47 -3 -121 35 -121 24 0 45 31 45 66 0 48 -16 74
-45 74 -14 0 -29 -8 -35 -19z m49 -5 c7 -8 11 -32 9 -53 -2 -30 -7 -38 -23
-38 -16 0 -21 8 -23 39 -5 61 11 83 37 52z"/>
<path d="M720 891 c-25 -47 -3 -121 35 -121 24 0 45 31 45 66 0 48 -16 74 -45
74 -14 0 -29 -8 -35 -19z m49 -5 c7 -8 11 -32 9 -53 -2 -30 -7 -38 -23 -38
-16 0 -21 8 -23 39 -5 61 11 83 37 52z"/>
<path d="M870 741 c-25 -47 -3 -121 35 -121 24 0 45 31 45 66 0 48 -16 74 -45
74 -14 0 -29 -8 -35 -19z m49 -5 c7 -8 11 -32 9 -53 -2 -30 -7 -38 -23 -38
-16 0 -21 8 -23 39 -5 61 11 83 37 52z"/>
<path d="M1170 741 c-25 -47 -3 -121 35 -121 24 0 45 31 45 66 0 48 -16 74
-45 74 -14 0 -29 -8 -35 -19z m49 -5 c7 -8 11 -32 9 -53 -2 -30 -7 -38 -23
-38 -16 0 -21 8 -23 39 -5 61 11 83 37 52z"/>
<path d="M1470 741 c-25 -47 -3 -121 35 -121 24 0 45 31 45 66 0 48 -16 74
-45 74 -14 0 -29 -8 -35 -19z m49 -5 c7 -8 11 -32 9 -53 -2 -30 -7 -38 -23
-38 -16 0 -21 8 -23 39 -5 61 11 83 37 52z"/>
<path d="M1770 741 c-25 -47 -3 -121 35 -121 24 0 45 31 45 66 0 48 -16 74
-45 74 -14 0 -29 -8 -35 -19z m49 -5 c7 -8 11 -32 9 -53 -2 -30 -7 -38 -23
-38 -16 0 -21 8 -23 39 -5 61 11 83 37 52z"/>
<path d="M2070 741 c-25 -47 -3 -121 35 -121 24 0 45 31 45 66 0 48 -16 74
-45 74 -14 0 -29 -8 -35 -19z m49 -5 c7 -8 11 -32 9 -53 -2 -30 -7 -38 -23
-38 -16 0 -21 8 -23 39 -5 61 11 83 37 52z"/>
<path d="M2370 741 c-25 -47 -3 -121 35 -121 24 0 45 31 45 66 0 48 -16 74
-45 74 -14 0 -29 -8 -35 -19z m49 -5 c7 -8 11 -32 9 -53 -2 -30 -7 -38 -23
-38 -16 0 -21 8 -23 39 -5 61 11 83 37 52z"/>
<path d="M2670 741 c-25 -47 -3 -121 35 -121 24 0 45 31 45 66 0 48 -16 74
-45 74 -14 0 -29 -8 -35 -19z m49 -5 c7 -8 11 -32 9 -53 -2 -30 -7 -38 -23
-38 -16 0 -21 8 -23 39 -5 61 11 83 37 52z"/>
<path d="M2970 741 c-25 -47 -3 -121 35 -121 24 0 45 31 45 66 0 48 -16 74
-45 74 -14 0 -29 -8 -35 -19z m49 -5 c7 -8 11 -32 9 -53 -2 -30 -7 -38 -23
-38 -16 0 -21 8 -23 39 -5 61 11 83 37 52z"/>
<path d="M3270 741 c-25 -47 -3 -121 35 -121 24 0 45 31 45 66 0 48 -16 74
-45 74 -14 0 -29 -8 -35 -19z m49 -5 c7 -8 11 -32 9 -53 -2 -30 -7 -38 -23
-38 -16 0 -21 8 -23 39 -5 61 11 83 37 52z"/>
<path d="M720 591 c-25 -47 -3 -121 35 -121 24 0 45 31 45 66 0 48 -16 74 -45
74 -14 0 -29 -8 -35 -19z m49 -5 c7 -8 11 -32 9 -53 -2 -30 -7 -38 -23 -38
-16 0 -21 8 -23 39 -5 61 11 83 37 52z"/>
<path d="M1020 591 c-25 -47 -3 -121 35 -121 24 0 45 31 45 66 0 48 -16 74
-45 74 -14 0 -29 -8 -35 -19z m49 -5 c7 -8 11 -32 9 -53 -2 -30 -7 -38 -23
-38 -16 0 -21 8 -23 39 -5 61 11 83 37 52z"/>
<path d="M1320 591 c-25 -47 -3 -121 35 -121 24 0 45 31 45 66 0 48 -16 74
-45 74 -14 0 -29 -8 -35 -19z m49 -5 c7 -8 11 -32 9 -53 -2 -30 -7 -38 -23
-38 -16 0 -21 8 -23 39 -5 61 11 83 37 52z"/>
<path d="M1620 591 c-25 -47 -3 -121 35 -121 24 0 45 31 45 66 0 48 -16 74
-45 74 -14 0 -29 -8 -35 -19z m49 -5 c7 -8 11 -32 9 -53 -2 -30 -7 -38 -23
-38 -16 0 -21 8 -23 39 -5 61 11 83 37 52z"/>
<path d="M1920 591 c-25 -47 -3 -121 35 -121 24 0 45 31 45 66 0 48 -16 74
-45 74 -14 0 -29 -8 -35 -19z m48 0 c9 -5 12 -24 10 -52 -2 -36 -7 -44 -23
-44 -16 0 -21 8 -23 39 -5 59 6 77 36 57z"/>
<path d="M2220 591 c-25 -47 -3 -121 35 -121 24 0 45 31 45 66 0 48 -16 74
-45 74 -14 0 -29 -8 -35 -19z m48 0 c9 -5 12 -24 10 -52 -2 -36 -7 -44 -23
-44 -16 0 -21 8 -23 39 -5 59 6 77 36 57z"/>
<path d="M2520 591 c-25 -47 -3 -121 35 -121 24 0 45 31 45 66 0 48 -16 74
-45 74 -14 0 -29 -8 -35 -19z m48 0 c9 -5 12 -24 10 -52 -2 -36 -7 -44 -23
-44 -16 0 -21 8 -23 39 -5 59 6 77 36 57z"/>
<path d="M2820 591 c-25 -47 -3 -121 35 -121 24 0 45 31 45 66 0 48 -16 74
-45 74 -14 0 -29 -8 -35 -19z m48 0 c9 -5 12 -24 10 -52 -2 -36 -7 -44 -23
-44 -16 0 -21 8 -23 39 -5 59 6 77 36 57z"/>
<path d="M3120 591 c-25 -47 -3 -121 35 -121 24 0 45 31 45 66 0 48 -16 74
-45 74 -14 0 -29 -8 -35 -19z m48 0 c9 -5 12 -24 10 -52 -2 -36 -7 -44 -23
-44 -16 0 -21 8 -23 39 -5 59 6 77 36 57z"/>
<path d="M3420 591 c-25 -47 -3 -121 35 -121 24 0 45 31 45 66 0 48 -16 74
-45 74 -14 0 -29 -8 -35 -19z m48 0 c9 -5 12 -24 10 -52 -2 -36 -7 -44 -23
-44 -16 0 -21 8 -23 39 -5 59 6 77 36 57z"/>
</g>
</svg>
