<?xml version="1.0" standalone="no"?>
<!DOCTYPE svg PUBLIC "-//W3C//DTD SVG 20010904//EN"
 "http://www.w3.org/TR/2001/REC-SVG-20010904/DTD/svg10.dtd">
<svg version="1.0" xmlns="http://www.w3.org/2000/svg"
 width="16.000000pt" height="16.000000pt" viewBox="0 0 16.000000 16.000000"
 preserveAspectRatio="xMidYMid meet">
<metadata>
Created by potrace 1.11, written by Peter Selinger 2001-2013
</metadata>
<g transform="translate(0.000000,16.000000) scale(0.004233,-0.004233)"
fill="#000000" stroke="none">
<path d="M1578 3418 c-90 -143 -1510 -2560 -1514 -2576 -2 -10 56 -136 129
-282 l132 -265 1565 -3 1565 -2 102 202 c55 112 116 234 134 272 l33 68 -30
53 c-16 29 -366 627 -779 1329 l-750 1275 -271 1 -271 0 -45 -72z m352 17 c-8
-9 -9 -15 -2 -15 6 0 14 6 19 13 5 7 10 -12 14 -48 l6 -60 1 63 2 62 83 0 83
0 131 -222 c121 -206 130 -224 116 -240 -18 -20 -4 -25 15 -6 9 9 12 -1 14
-47 1 -56 1 -57 7 -18 l6 43 209 -355 c183 -311 207 -357 195 -371 -12 -15
-11 -16 9 -10 21 7 22 4 23 -46 1 -46 2 -49 8 -18 6 33 15 20 212 -315 163
-276 204 -353 195 -364 -9 -12 -8 -13 6 -9 19 8 28 -9 29 -60 1 -34 2 -35 8
-9 5 25 21 1 148 -215 79 -134 154 -262 169 -285 24 -42 25 -43 5 -43 -17 0
-21 6 -21 32 l0 31 -25 -23 c-26 -25 -26 -42 0 -20 12 10 15 10 15 -4 0 -14
-18 -16 -145 -16 l-145 0 0 32 0 31 -25 -23 c-26 -25 -26 -42 0 -20 12 10 15
10 15 -4 0 -14 -18 -16 -145 -16 l-145 0 0 32 0 31 -25 -23 c-26 -25 -26 -42
0 -20 12 10 15 10 15 -4 0 -14 -18 -16 -145 -16 l-145 0 0 32 0 31 -25 -23
c-26 -25 -26 -42 0 -20 12 10 15 10 15 -4 0 -14 -18 -16 -145 -16 l-145 0 0
32 0 31 -25 -23 c-26 -25 -26 -42 0 -20 12 10 15 10 15 -4 0 -14 -18 -16 -145
-16 l-145 0 0 32 0 31 -25 -23 c-26 -25 -26 -42 0 -20 12 10 15 10 15 -2 0
-12 -21 -16 -92 -22 -50 -3 -115 -6 -145 -6 l-53 0 0 37 0 36 -25 -23 c-26
-25 -26 -42 0 -20 13 10 15 9 15 -9 0 -20 -4 -21 -145 -21 l-145 0 0 37 0 36
-25 -23 c-26 -25 -26 -42 0 -20 13 10 15 9 15 -9 0 -20 -4 -21 -145 -21 l-145
0 0 37 0 36 -25 -23 c-26 -25 -26 -42 0 -20 13 10 15 9 15 -9 0 -17 -6 -21
-31 -21 l-31 0 20 33 c18 29 134 239 218 392 l33 60 106 3 c72 2 105 -1 100
-8 -9 -15 12 -12 22 3 5 7 10 -12 14 -48 l6 -60 1 58 2 57 131 0 c84 0 128 -4
124 -10 -9 -15 12 -12 22 3 5 7 10 -12 14 -48 l6 -60 1 58 2 57 131 0 c84 0
128 -4 124 -10 -9 -15 12 -12 22 3 5 7 10 -12 14 -48 l6 -60 1 58 2 57 131 0
c84 0 128 -4 124 -10 -9 -15 12 -12 22 3 5 7 10 -12 14 -48 l6 -60 1 58 2 57
131 0 c84 0 128 -4 124 -10 -9 -15 12 -12 22 3 5 7 10 -12 14 -48 l6 -60 1 58
c2 43 6 57 17 57 8 0 15 5 15 10 0 6 -41 80 -92 165 l-91 155 2 78 2 77 -25
-24 c-27 -25 -28 -43 -1 -21 13 11 15 6 15 -41 0 -62 4 -66 -83 83 -32 53 -57
108 -57 122 0 16 -5 24 -12 21 -8 -3 -65 84 -150 228 l-138 233 0 74 0 73 -25
-23 c-26 -25 -26 -42 0 -20 13 11 15 6 15 -36 l0 -49 -70 118 c-39 66 -70 128
-70 139 0 10 -4 17 -9 14 -4 -3 -72 102 -150 234 l-141 240 0 67 0 66 -25 -23
c-14 -13 -27 -22 -28 -19 -3 3 -74 125 -94 162 -2 4 57 7 133 7 120 0 135 -2
124 -15z m303 -1037 l595 -1008 -232 0 -232 0 -240 395 c-131 217 -297 490
-368 606 l-128 210 -17 -28 c-10 -15 -298 -517 -640 -1115 -343 -599 -626
-1088 -630 -1088 -3 0 -58 103 -121 229 -112 225 -114 231 -100 260 43 86
1506 2558 1511 2553 4 -4 275 -460 602 -1014z m-425 840 l-3 -23 -13 23 c-11
19 -11 26 0 39 12 15 13 15 16 0 2 -9 2 -27 0 -39z m-94 -866 c53 -88 70 -122
60 -126 -23 -9 -18 -92 6 -109 20 -14 17 -21 -112 -255 -115 -209 -135 -239
-150 -231 -33 18 -58 -6 -58 -54 0 -24 4 -47 9 -52 5 -6 -44 -105 -123 -246
-106 -191 -136 -238 -158 -247 -24 -9 -28 -16 -28 -50 0 -48 -55 -157 -66
-129 -10 27 -40 40 -64 27 -25 -13 -28 -91 -5 -110 16 -13 65 -6 65 10 0 6 44
10 109 10 84 0 111 -3 121 -15 16 -19 44 -19 64 0 21 22 218 22 236 0 7 -8 21
-15 31 -15 9 0 24 7 33 15 21 22 218 22 236 0 16 -19 44 -19 64 0 21 22 218
22 236 0 7 -8 21 -15 31 -15 9 0 24 7 33 15 11 11 40 15 119 15 81 0 107 -3
117 -15 16 -19 44 -19 64 0 21 22 218 22 236 0 16 -19 44 -19 64 0 11 11 40
15 119 15 81 0 107 -3 117 -15 16 -19 44 -19 64 0 21 22 218 22 236 0 16 -19
44 -19 64 0 10 11 37 15 95 15 45 0 81 -2 81 -5 0 -2 -5 -16 -12 -30 -9 -19
-17 -25 -32 -21 -36 9 -56 -11 -56 -59 0 -24 4 -46 9 -50 6 -3 -23 -73 -62
-155 l-72 -149 -48 -1 -49 0 7 30 c13 59 -23 102 -66 80 -18 -10 -20 -19 -17
-61 l3 -49 -113 0 -114 0 7 30 c13 59 -23 102 -66 80 -18 -10 -20 -19 -17 -61
l3 -49 -113 0 -114 0 7 30 c13 59 -23 102 -66 80 -18 -10 -20 -19 -17 -61 l3
-49 -113 0 -114 0 7 30 c13 59 -23 102 -66 80 -18 -10 -20 -19 -17 -61 l3 -49
-113 0 -114 0 7 30 c13 59 -23 102 -66 80 -18 -10 -20 -19 -17 -61 l3 -49
-113 0 -114 0 7 30 c13 59 -23 102 -66 80 -18 -10 -20 -19 -17 -61 l3 -49
-113 0 -114 0 7 30 c13 59 -23 102 -66 80 -18 -10 -20 -19 -17 -61 l3 -49
-113 0 -114 0 7 30 c13 59 -23 102 -66 80 -18 -10 -20 -19 -17 -61 l3 -49
-113 0 -114 0 7 30 c13 59 -23 102 -66 80 -18 -10 -20 -19 -17 -61 l3 -49
-113 0 -114 0 7 30 c13 59 -23 102 -66 80 -18 -10 -20 -19 -17 -61 l3 -49 -87
0 c-49 0 -88 3 -88 6 0 12 81 144 89 144 5 0 12 12 16 28 3 15 20 51 37 80 24
43 33 51 44 41 7 -6 25 -8 38 -5 33 8 46 65 23 99 -14 22 -9 34 120 259 102
177 141 238 158 242 22 6 35 31 35 72 0 12 12 42 26 68 l26 46 17 -21 c27 -33
68 -19 76 25 7 34 -7 76 -25 76 -6 0 -10 5 -10 10 0 6 59 114 131 240 106 186
136 230 153 230 40 0 51 16 51 72 0 42 7 65 32 108 31 53 33 54 33 24 0 -38
22 -58 54 -50 23 6 36 30 36 69 0 23 -38 60 -56 53 -9 -4 -1 18 21 57 19 34
52 92 73 129 20 37 40 64 45 59 4 -4 41 -62 81 -129z m-196 -158 c3 -16 1 -16
-7 -4 -6 8 -11 11 -12 5 0 -5 -3 -21 -5 -35 -4 -24 -4 -24 10 -5 15 20 15 20
16 -2 0 -27 -19 -41 -31 -22 -10 17 -12 73 -2 83 11 11 28 1 31 -20z m278 -16
c-5 -38 -5 -40 9 -22 14 19 14 19 15 -2 0 -26 -8 -34 -26 -27 -21 8 -18 93 4
93 2 0 1 -19 -2 -42z m291 -436 l223 -367 -215 -3 c-118 -1 -312 -1 -430 0
l-215 3 202 368 c111 202 204 367 207 367 3 -1 106 -166 228 -368z m-721 242
c-3 -8 -10 -12 -16 -9 -7 4 -6 14 2 28 12 24 24 8 14 -19z m152 -390 c3 -16 1
-16 -7 -4 -6 8 -11 11 -12 5 -4 -53 -19 -71 -19 -23 0 19 3 38 7 42 11 11 28
1 31 -20z m-450 -150 c3 -16 1 -16 -7 -4 -6 8 -11 11 -12 5 0 -5 -3 -21 -5
-35 -4 -24 -4 -24 10 -5 15 20 15 20 16 -1 0 -27 -10 -36 -27 -23 -14 12 -18
70 -6 83 11 11 28 1 31 -20z m-157 -217 c-10 -9 -11 -8 -5 6 3 10 9 15 12 12
3 -3 0 -11 -7 -18z m282 -222 c-3 -9 -8 -14 -10 -11 -3 3 -2 9 2 15 9 16 15
13 8 -4z m-125 -161 c3 -16 1 -16 -7 -4 -6 8 -11 11 -12 5 0 -5 -3 -21 -5 -35
-4 -24 -4 -24 10 -5 15 20 15 20 16 -1 0 -27 -10 -36 -27 -23 -14 12 -18 70
-6 83 11 11 28 1 31 -20z m302 -58 c0 -11 -19 -15 -25 -6 -3 5 1 10 9 10 9 0
16 -2 16 -4z m300 0 c0 -11 -19 -15 -25 -6 -3 5 1 10 9 10 9 0 16 -2 16 -4z
m300 0 c0 -11 -19 -15 -25 -6 -3 5 1 10 9 10 9 0 16 -2 16 -4z m300 0 c0 -11
-19 -15 -25 -6 -3 5 1 10 9 10 9 0 16 -2 16 -4z m300 0 c0 -11 -19 -15 -25 -6
-3 5 1 10 9 10 9 0 16 -2 16 -4z m300 0 c0 -11 -19 -15 -25 -6 -3 5 1 10 9 10
9 0 16 -2 16 -4z m300 0 c0 -11 -19 -15 -25 -6 -3 5 1 10 9 10 9 0 16 -2 16
-4z m300 0 c0 -11 -19 -15 -25 -6 -3 5 1 10 9 10 9 0 16 -2 16 -4z m148 -86
c3 -7 0 -10 -7 -6 -6 4 -11 4 -12 -1 -5 -52 -19 -68 -19 -21 0 19 3 38 7 42 9
9 26 2 31 -14z m-2998 -5 c0 -8 -2 -15 -4 -15 -2 0 -6 7 -10 15 -3 8 -1 15 4
15 6 0 10 -7 10 -15z m-27 -42 c-5 -15 -3 -14 10 2 16 20 16 20 17 -1 0 -27
-10 -36 -27 -23 -15 13 -18 39 -3 39 5 0 7 -8 3 -17z m25 -259 c3 -16 1 -16
-7 -4 -6 8 -11 11 -12 5 0 -5 -3 -21 -5 -35 -4 -24 -4 -24 10 -5 15 20 15 20
16 -2 0 -27 -19 -41 -31 -22 -10 17 -12 73 -2 83 11 11 28 1 31 -20z m300 0
c3 -16 1 -16 -7 -4 -6 8 -11 11 -12 5 0 -5 -3 -21 -5 -35 -4 -24 -4 -24 10 -5
15 20 15 20 16 -1 0 -27 -10 -36 -27 -23 -14 12 -18 70 -6 83 11 11 28 1 31
-20z m300 0 c3 -16 1 -16 -7 -4 -6 8 -11 11 -12 5 0 -5 -3 -21 -5 -35 -4 -24
-4 -24 10 -5 15 20 15 20 16 -2 0 -27 -19 -41 -31 -22 -10 17 -12 73 -2 83 11
11 28 1 31 -20z m300 0 c3 -16 1 -16 -7 -4 -6 8 -11 11 -12 5 0 -5 -3 -21 -5
-35 -4 -24 -4 -24 10 -5 15 20 15 20 16 -1 0 -27 -10 -36 -27 -23 -14 12 -18
70 -6 83 11 11 28 1 31 -20z m300 0 c3 -16 1 -16 -7 -4 -6 8 -11 11 -12 5 0
-5 -3 -21 -5 -35 -4 -24 -4 -24 10 -5 15 20 15 20 16 -1 0 -27 -10 -36 -27
-23 -14 12 -18 70 -6 83 11 11 28 1 31 -20z m300 0 c3 -16 1 -16 -7 -4 -6 8
-11 11 -12 5 0 -5 -3 -21 -5 -35 -4 -24 -4 -24 10 -5 15 20 15 20 16 -1 0 -27
-10 -36 -27 -23 -14 12 -18 70 -6 83 11 11 28 1 31 -20z m300 0 c3 -16 1 -16
-7 -4 -6 8 -11 11 -12 5 0 -5 -3 -21 -5 -35 -4 -24 -4 -24 10 -5 15 20 15 20
16 -1 0 -27 -10 -36 -27 -23 -14 12 -18 70 -6 83 11 11 28 1 31 -20z m300 0
c3 -16 1 -16 -7 -4 -6 8 -11 11 -12 5 0 -5 -3 -21 -5 -35 -4 -24 -4 -24 10 -5
15 20 15 20 16 -1 0 -27 -10 -36 -27 -23 -14 12 -18 70 -6 83 11 11 28 1 31
-20z m300 0 c3 -16 1 -16 -7 -4 -6 8 -11 11 -12 5 0 -5 -3 -21 -5 -35 -4 -24
-4 -24 10 -5 15 20 15 20 16 -1 0 -27 -10 -36 -27 -23 -14 12 -18 70 -6 83 11
11 28 1 31 -20z m300 0 c3 -16 1 -16 -7 -4 -6 8 -11 11 -12 5 0 -5 -3 -21 -5
-35 -4 -24 -4 -24 10 -5 15 20 15 20 16 -1 0 -27 -10 -36 -27 -23 -14 12 -18
70 -6 83 11 11 28 1 31 -20z"/>
<path d="M2090 3295 c-13 -14 -18 -25 -12 -25 6 0 14 6 19 13 5 7 10 -12 14
-48 l6 -60 1 73 c1 39 1 72 -1 72 -2 0 -14 -11 -27 -25z"/>
<path d="M1940 3145 c-13 -14 -18 -25 -12 -25 6 0 14 6 19 13 5 7 10 -12 14
-48 l6 -60 1 73 c1 39 1 72 -1 72 -2 0 -14 -11 -27 -25z"/>
<path d="M2240 3145 c-13 -14 -18 -25 -12 -25 6 0 14 6 19 13 5 7 10 -12 14
-48 l6 -60 1 73 c1 39 1 72 -1 72 -2 0 -14 -11 -27 -25z"/>
<path d="M2090 2995 c-13 -14 -18 -25 -12 -25 6 0 14 6 19 13 5 7 10 -12 14
-48 l6 -60 1 73 c1 39 1 72 -1 72 -2 0 -14 -11 -27 -25z"/>
<path d="M1980 2951 c0 -5 5 -13 10 -16 6 -3 10 -2 10 4 0 5 -4 13 -10 16 -5
3 -10 2 -10 -4z"/>
<path d="M2240 2845 c-13 -14 -18 -25 -12 -25 6 0 14 6 19 13 5 7 10 -12 14
-48 l6 -60 1 73 c1 39 1 72 -1 72 -2 0 -14 -11 -27 -25z"/>
<path d="M2390 2695 c-13 -14 -18 -25 -12 -25 6 0 14 6 19 13 5 7 10 -12 14
-48 l6 -60 1 73 c1 39 1 72 -1 72 -2 0 -14 -11 -27 -25z"/>
<path d="M2540 2545 c-13 -14 -18 -25 -12 -25 6 0 14 6 19 13 5 7 10 -12 14
-48 l6 -60 1 73 c1 39 1 72 -1 72 -2 0 -14 -11 -27 -25z"/>
<path d="M2390 2395 c-13 -14 -18 -25 -12 -25 6 0 14 6 19 13 5 7 10 -12 14
-48 l6 -60 1 73 c1 39 1 72 -1 72 -2 0 -14 -11 -27 -25z"/>
<path d="M2690 2395 c-13 -14 -18 -25 -12 -25 6 0 14 6 19 13 5 7 10 -12 14
-48 l6 -60 1 73 c1 39 1 72 -1 72 -2 0 -14 -11 -27 -25z"/>
<path d="M2540 2245 c-13 -14 -18 -25 -12 -25 6 0 14 6 19 13 5 7 10 -12 14
-48 l6 -60 1 73 c1 39 1 72 -1 72 -2 0 -14 -11 -27 -25z"/>
<path d="M2690 2095 c-13 -14 -18 -25 -12 -25 6 0 14 6 19 13 5 7 10 -12 14
-48 l6 -60 1 73 c1 39 1 72 -1 72 -2 0 -14 -11 -27 -25z"/>
<path d="M2840 1945 c-13 -14 -18 -25 -12 -25 6 0 14 6 19 13 5 7 10 -12 14
-48 l6 -60 1 73 c1 39 1 72 -1 72 -2 0 -14 -11 -27 -25z"/>
<path d="M2990 1795 c-13 -14 -18 -25 -12 -25 6 0 14 6 19 13 5 7 10 -12 14
-48 l6 -60 1 73 c1 39 1 72 -1 72 -2 0 -14 -11 -27 -25z"/>
<path d="M2840 1645 c-13 -14 -18 -25 -12 -25 6 0 14 6 19 13 5 7 10 -12 14
-48 l6 -60 1 73 c1 39 1 72 -1 72 -2 0 -14 -11 -27 -25z"/>
<path d="M3140 1645 c-13 -14 -18 -25 -12 -25 6 0 14 6 19 13 5 7 10 -12 14
-48 l6 -60 1 73 c1 39 1 72 -1 72 -2 0 -14 -11 -27 -25z"/>
<path d="M2990 1495 c-13 -14 -18 -25 -12 -25 6 0 14 6 19 13 5 7 10 -12 14
-48 l6 -60 1 73 c1 39 1 72 -1 72 -2 0 -14 -11 -27 -25z"/>
<path d="M3140 1345 c-13 -14 -18 -25 -12 -25 6 0 14 6 19 13 5 7 10 -12 14
-48 l6 -60 1 73 c1 39 1 72 -1 72 -2 0 -14 -11 -27 -25z"/>
<path d="M1490 1195 c-13 -14 -18 -25 -12 -25 6 0 14 6 19 13 5 7 10 -12 14
-48 l6 -60 1 73 c1 39 1 72 -1 72 -2 0 -14 -11 -27 -25z"/>
<path d="M1790 1195 c-13 -14 -18 -25 -12 -25 6 0 14 6 19 13 5 7 10 -12 14
-48 l6 -60 1 73 c1 39 1 72 -1 72 -2 0 -14 -11 -27 -25z"/>
<path d="M2090 1195 c-13 -14 -18 -25 -12 -25 6 0 14 6 19 13 5 7 10 -12 14
-48 l6 -60 1 73 c1 39 1 72 -1 72 -2 0 -14 -11 -27 -25z"/>
<path d="M2390 1195 c-13 -14 -18 -25 -12 -25 6 0 14 6 19 13 5 7 10 -12 14
-48 l6 -60 1 73 c1 39 1 72 -1 72 -2 0 -14 -11 -27 -25z"/>
<path d="M2690 1195 c-13 -14 -18 -25 -12 -25 6 0 14 6 19 13 5 7 10 -12 14
-48 l6 -60 1 73 c1 39 1 72 -1 72 -2 0 -14 -11 -27 -25z"/>
<path d="M2990 1195 c-13 -14 -18 -25 -12 -25 6 0 14 6 19 13 5 7 10 -12 14
-48 l6 -60 1 73 c1 39 1 72 -1 72 -2 0 -14 -11 -27 -25z"/>
<path d="M3290 1195 c-13 -14 -18 -25 -12 -25 6 0 14 6 19 13 5 7 10 -12 14
-48 l6 -60 1 73 c1 39 1 72 -1 72 -2 0 -14 -11 -27 -25z"/>
<path d="M1340 1045 c-13 -14 -18 -25 -12 -25 6 0 14 6 19 13 5 7 10 -12 14
-48 l6 -60 1 73 c1 39 1 72 -1 72 -2 0 -14 -11 -27 -25z"/>
<path d="M1640 1045 c-13 -14 -18 -25 -12 -25 6 0 14 6 19 13 5 7 10 -12 14
-48 l6 -60 1 73 c1 39 1 72 -1 72 -2 0 -14 -11 -27 -25z"/>
<path d="M1940 1045 c-13 -14 -18 -25 -12 -25 6 0 14 6 19 13 5 7 10 -12 14
-48 l6 -60 1 73 c1 39 1 72 -1 72 -2 0 -14 -11 -27 -25z"/>
<path d="M2240 1045 c-13 -14 -18 -25 -12 -25 6 0 14 6 19 13 5 7 10 -12 14
-48 l6 -60 1 73 c1 39 1 72 -1 72 -2 0 -14 -11 -27 -25z"/>
<path d="M2540 1045 c-13 -14 -18 -25 -12 -25 6 0 14 6 19 13 5 7 10 -12 14
-48 l6 -60 1 73 c1 39 1 72 -1 72 -2 0 -14 -11 -27 -25z"/>
<path d="M2840 1045 c-13 -14 -18 -25 -12 -25 6 0 14 6 19 13 5 7 10 -12 14
-48 l6 -60 1 73 c1 39 1 72 -1 72 -2 0 -14 -11 -27 -25z"/>
<path d="M3140 1045 c-13 -14 -18 -25 -12 -25 6 0 14 6 19 13 5 7 10 -12 14
-48 l6 -60 1 73 c1 39 1 72 -1 72 -2 0 -14 -11 -27 -25z"/>
<path d="M3440 1045 c-13 -14 -18 -25 -12 -25 6 0 14 6 19 13 5 7 10 -12 14
-48 l6 -60 1 73 c1 39 1 72 -1 72 -2 0 -14 -11 -27 -25z"/>
<path d="M1628 2399 c-23 -13 -25 -91 -3 -109 21 -17 61 -4 69 22 10 39 7 57
-14 78 -23 23 -28 24 -52 9z m40 -35 c3 -16 1 -16 -7 -4 -6 8 -11 11 -12 5 0
-5 -3 -21 -5 -35 -4 -24 -4 -24 10 -5 15 20 15 20 16 -1 0 -27 -10 -36 -27
-23 -14 12 -18 70 -6 83 11 11 28 1 31 -20z"/>
<path d="M1628 2099 c-23 -13 -25 -91 -3 -109 21 -17 61 -4 69 22 10 39 7 57
-14 78 -23 23 -28 24 -52 9z m40 -35 c3 -16 1 -16 -7 -4 -6 8 -11 11 -12 5 0
-5 -3 -21 -5 -35 -4 -24 -4 -24 10 -5 15 20 15 20 16 -1 0 -27 -10 -36 -27
-23 -14 12 -18 70 -6 83 11 11 28 1 31 -20z"/>
<path d="M1478 1949 c-23 -13 -25 -91 -3 -109 21 -17 61 -4 69 22 10 39 7 57
-14 78 -23 23 -28 24 -52 9z m40 -35 c3 -16 1 -16 -7 -4 -6 8 -11 11 -12 5 0
-5 -3 -21 -5 -35 -4 -24 -4 -24 10 -5 15 20 15 20 16 -1 0 -27 -10 -36 -27
-23 -14 12 -18 70 -6 83 11 11 28 1 31 -20z"/>
<path d="M1328 1799 c-23 -13 -25 -91 -3 -109 21 -17 61 -4 69 22 10 39 7 57
-14 78 -23 23 -28 24 -52 9z m40 -35 c3 -16 1 -16 -7 -4 -6 8 -11 11 -12 5 0
-5 -3 -21 -5 -35 -4 -24 -4 -24 10 -5 15 20 15 20 16 -1 0 -27 -10 -36 -27
-23 -14 12 -18 70 -6 83 11 11 28 1 31 -20z"/>
<path d="M1178 1649 c-23 -13 -25 -91 -3 -109 21 -17 61 -4 69 22 10 39 7 57
-14 78 -23 23 -28 24 -52 9z m40 -35 c3 -16 1 -16 -7 -4 -6 8 -11 11 -12 5 0
-5 -3 -21 -5 -35 -4 -24 -4 -24 10 -5 15 20 15 20 16 -2 0 -27 -19 -41 -31
-22 -10 17 -12 73 -2 83 11 11 28 1 31 -20z"/>
<path d="M1328 1499 c-23 -13 -25 -91 -3 -109 21 -17 61 -4 69 22 10 39 7 57
-14 78 -23 23 -28 24 -52 9z m40 -35 c3 -16 1 -16 -7 -4 -6 8 -11 11 -12 5 0
-5 -3 -21 -5 -35 -4 -24 -4 -24 10 -5 15 20 15 20 16 -1 0 -27 -10 -36 -27
-23 -14 12 -18 70 -6 83 11 11 28 1 31 -20z"/>
<path d="M1178 1349 c-23 -13 -25 -91 -3 -109 21 -17 61 -4 69 22 10 39 7 57
-14 78 -23 23 -28 24 -52 9z m40 -35 c3 -16 1 -16 -7 -4 -6 8 -11 11 -12 5 0
-5 -3 -21 -5 -35 -4 -24 -4 -24 10 -5 15 20 15 20 16 -1 0 -26 -8 -34 -26 -27
-14 5 -20 74 -7 87 11 11 28 1 31 -20z"/>
<path d="M1028 1199 c-23 -13 -25 -91 -3 -109 21 -17 61 -4 69 22 10 39 7 57
-14 78 -23 23 -28 24 -52 9z m40 -35 c3 -16 1 -16 -7 -4 -6 8 -11 11 -12 5 0
-5 -3 -21 -5 -35 -4 -24 -4 -24 10 -5 15 20 15 20 16 -1 0 -27 -10 -36 -27
-23 -14 12 -18 70 -6 83 11 11 28 1 31 -20z"/>
<path d="M878 1049 c-23 -13 -25 -91 -3 -109 21 -17 61 -4 69 22 10 39 7 57
-14 78 -23 23 -28 24 -52 9z m40 -35 c3 -16 1 -16 -7 -4 -6 8 -11 11 -12 5 0
-5 -3 -21 -5 -35 -4 -24 -4 -24 10 -5 15 20 15 20 16 -1 0 -27 -10 -36 -27
-23 -14 12 -18 70 -6 83 11 11 28 1 31 -20z"/>
<path d="M728 899 c-23 -13 -25 -91 -3 -109 21 -17 61 -4 69 22 10 39 7 57
-14 78 -23 23 -28 24 -52 9z m40 -35 c3 -16 1 -16 -7 -4 -6 8 -11 11 -12 5 0
-5 -3 -21 -5 -35 -4 -24 -4 -24 10 -5 15 20 15 20 16 -1 0 -27 -10 -36 -27
-23 -14 12 -18 70 -6 83 11 11 28 1 31 -20z"/>
<path d="M878 749 c-23 -13 -25 -91 -3 -109 21 -17 61 -4 69 22 10 39 7 57
-14 78 -23 23 -28 24 -52 9z m40 -35 c3 -16 1 -16 -7 -4 -6 8 -11 11 -12 5 0
-5 -3 -21 -5 -35 -4 -24 -4 -24 10 -5 15 20 15 20 16 -1 0 -27 -10 -36 -27
-23 -14 12 -18 70 -6 83 11 11 28 1 31 -20z"/>
<path d="M1178 749 c-23 -13 -25 -91 -3 -109 21 -17 61 -4 69 22 10 39 7 57
-14 78 -23 23 -28 24 -52 9z m40 -35 c3 -16 1 -16 -7 -4 -6 8 -11 11 -12 5 0
-5 -3 -21 -5 -35 -4 -24 -4 -24 10 -5 15 20 15 20 16 -1 0 -26 -8 -34 -26 -27
-14 5 -20 74 -7 87 11 11 28 1 31 -20z"/>
<path d="M1478 749 c-23 -13 -25 -91 -3 -109 21 -17 61 -4 69 22 10 39 7 57
-14 78 -23 23 -28 24 -52 9z m40 -35 c3 -16 1 -16 -7 -4 -6 8 -11 11 -12 5 0
-5 -3 -21 -5 -35 -4 -24 -4 -24 10 -5 15 20 15 20 16 -2 0 -27 -19 -41 -31
-22 -10 17 -12 73 -2 83 11 11 28 1 31 -20z"/>
<path d="M1778 749 c-23 -13 -25 -91 -3 -109 21 -17 61 -4 69 22 10 39 7 57
-14 78 -23 23 -28 24 -52 9z m40 -35 c3 -16 1 -16 -7 -4 -6 8 -11 11 -12 5 0
-5 -3 -21 -5 -35 -4 -24 -4 -24 10 -5 15 20 15 20 16 -2 0 -27 -19 -41 -31
-22 -10 17 -12 73 -2 83 11 11 28 1 31 -20z"/>
<path d="M2078 749 c-23 -13 -25 -91 -3 -109 21 -17 61 -4 69 22 10 39 7 57
-14 78 -23 23 -28 24 -52 9z m40 -35 c3 -16 1 -16 -7 -4 -6 8 -11 11 -12 5 0
-5 -3 -21 -5 -35 -4 -24 -4 -24 10 -5 15 20 15 20 16 -2 0 -27 -19 -41 -31
-22 -10 17 -12 73 -2 83 11 11 28 1 31 -20z"/>
<path d="M2378 749 c-23 -13 -25 -91 -3 -109 21 -17 61 -4 69 22 10 39 7 57
-14 78 -23 23 -28 24 -52 9z m40 -35 c3 -16 1 -16 -7 -4 -6 8 -11 11 -12 5 0
-5 -3 -21 -5 -35 -4 -24 -4 -24 10 -5 15 20 15 20 16 -2 0 -27 -19 -41 -31
-22 -10 17 -12 73 -2 83 11 11 28 1 31 -20z"/>
<path d="M2678 749 c-23 -13 -25 -91 -3 -109 21 -17 61 -4 69 22 10 39 7 57
-14 78 -23 23 -28 24 -52 9z m40 -35 c3 -16 1 -16 -7 -4 -6 8 -11 11 -12 5 0
-5 -3 -21 -5 -35 -4 -24 -4 -24 10 -5 15 20 15 20 16 -1 0 -26 -8 -34 -26 -27
-14 5 -20 74 -7 87 11 11 28 1 31 -20z"/>
<path d="M2978 749 c-23 -13 -25 -91 -3 -109 21 -17 61 -4 69 22 10 39 7 57
-14 78 -23 23 -28 24 -52 9z m40 -35 c3 -16 1 -16 -7 -4 -6 8 -11 11 -12 5 0
-5 -3 -21 -5 -35 -4 -24 -4 -24 10 -5 15 20 15 20 16 -1 0 -27 -10 -36 -27
-23 -14 12 -18 70 -6 83 11 11 28 1 31 -20z"/>
<path d="M3278 749 c-23 -13 -25 -91 -3 -109 21 -17 61 -4 69 22 10 39 7 57
-14 78 -23 23 -28 24 -52 9z m40 -35 c3 -16 1 -16 -7 -4 -6 8 -11 11 -12 5 0
-5 -3 -21 -5 -35 -4 -24 -4 -24 10 -5 15 20 15 20 16 -1 0 -27 -10 -36 -27
-23 -14 12 -18 70 -6 83 11 11 28 1 31 -20z"/>
<path d="M728 599 c-23 -13 -25 -91 -3 -109 21 -17 61 -4 69 22 10 39 7 57
-14 78 -23 23 -28 24 -52 9z m40 -35 c3 -16 1 -16 -7 -4 -6 8 -11 11 -12 5 0
-5 -3 -21 -5 -35 -4 -24 -4 -24 10 -5 15 20 15 20 16 -1 0 -27 -10 -36 -27
-23 -14 12 -18 70 -6 83 11 11 28 1 31 -20z"/>
<path d="M1028 599 c-23 -13 -25 -91 -3 -109 21 -17 61 -4 69 22 10 39 7 57
-14 78 -23 23 -28 24 -52 9z m40 -35 c3 -16 1 -16 -7 -4 -6 8 -11 11 -12 5 0
-5 -3 -21 -5 -35 -4 -24 -4 -24 10 -5 15 20 15 20 16 -1 0 -27 -10 -36 -27
-23 -14 12 -18 70 -6 83 11 11 28 1 31 -20z"/>
<path d="M1328 599 c-23 -13 -25 -91 -3 -109 21 -17 61 -4 69 22 10 39 7 57
-14 78 -23 23 -28 24 -52 9z m40 -35 c3 -16 1 -16 -7 -4 -6 8 -11 11 -12 5 0
-5 -3 -21 -5 -35 -4 -24 -4 -24 10 -5 15 20 15 20 16 -1 0 -27 -10 -36 -27
-23 -14 12 -18 70 -6 83 11 11 28 1 31 -20z"/>
<path d="M1628 599 c-23 -13 -25 -91 -3 -109 21 -17 61 -4 69 22 10 39 7 57
-14 78 -23 23 -28 24 -52 9z m40 -35 c3 -16 1 -16 -7 -4 -6 8 -11 11 -12 5 0
-5 -3 -21 -5 -35 -4 -24 -4 -24 10 -5 15 20 15 20 16 -1 0 -27 -10 -36 -27
-23 -14 12 -18 70 -6 83 11 11 28 1 31 -20z"/>
<path d="M1928 599 c-23 -13 -25 -91 -3 -109 21 -17 61 -4 69 22 10 39 7 57
-14 78 -23 23 -28 24 -52 9z m40 -35 c3 -16 1 -16 -7 -4 -6 8 -11 11 -12 5 0
-5 -3 -21 -5 -35 -4 -24 -4 -24 10 -5 15 20 15 20 16 -1 0 -27 -10 -36 -27
-23 -14 12 -18 70 -6 83 11 11 28 1 31 -20z"/>
<path d="M2228 599 c-23 -13 -25 -91 -3 -109 21 -17 61 -4 69 22 10 39 7 57
-14 78 -23 23 -28 24 -52 9z m40 -35 c3 -16 1 -16 -7 -4 -6 8 -11 11 -12 5 0
-5 -3 -21 -5 -35 -4 -24 -4 -24 10 -5 15 20 15 20 16 -1 0 -27 -10 -36 -27
-23 -14 12 -18 70 -6 83 11 11 28 1 31 -20z"/>
<path d="M2528 599 c-23 -13 -25 -91 -3 -109 21 -17 61 -4 69 22 10 39 7 57
-14 78 -23 23 -28 24 -52 9z m40 -35 c3 -16 1 -16 -7 -4 -6 8 -11 11 -12 5 0
-5 -3 -21 -5 -35 -4 -24 -4 -24 10 -5 15 20 15 20 16 -1 0 -27 -10 -36 -27
-23 -14 12 -18 70 -6 83 11 11 28 1 31 -20z"/>
<path d="M2828 599 c-23 -13 -25 -91 -3 -109 21 -17 61 -4 69 22 10 39 7 57
-14 78 -23 23 -28 24 -52 9z m40 -35 c3 -16 1 -16 -7 -4 -6 8 -11 11 -12 5 0
-5 -3 -21 -5 -35 -4 -24 -4 -24 10 -5 15 20 15 20 16 -1 0 -27 -10 -36 -27
-23 -14 12 -18 70 -6 83 11 11 28 1 31 -20z"/>
<path d="M3128 599 c-23 -13 -25 -91 -3 -109 21 -17 61 -4 69 22 10 39 7 57
-14 78 -23 23 -28 24 -52 9z m40 -35 c3 -16 1 -16 -7 -4 -6 8 -11 11 -12 5 0
-5 -3 -21 -5 -35 -4 -24 -4 -24 10 -5 15 20 15 20 16 -1 0 -27 -10 -36 -27
-23 -14 12 -18 70 -6 83 11 11 28 1 31 -20z"/>
<path d="M3428 599 c-23 -13 -25 -91 -3 -109 21 -17 61 -4 69 22 10 39 7 57
-14 78 -23 23 -28 24 -52 9z m40 -35 c3 -16 1 -16 -7 -4 -6 8 -11 11 -12 5 0
-5 -3 -21 -5 -35 -4 -24 -4 -24 10 -5 15 20 15 20 16 -1 0 -27 -10 -36 -27
-23 -14 12 -18 70 -6 83 11 11 28 1 31 -20z"/>
</g>
</svg>
